<?xml version="1.0" standalone="no"?>
<!DOCTYPE svg PUBLIC "-//W3C//DTD SVG 20010904//EN"
 "http://www.w3.org/TR/2001/REC-SVG-20010904/DTD/svg10.dtd">
<svg version="1.0" xmlns="http://www.w3.org/2000/svg"
 width="1024.000000pt" height="1024.000000pt" viewBox="0 0 1024.000000 1024.000000"
 preserveAspectRatio="xMidYMid meet">
<metadata>
Created by potrace 1.14, written by Peter Selinger 2001-2017
</metadata>
<g transform="translate(0.000000,1024.000000) scale(0.100000,-0.100000)"
fill="#000000" stroke="none">
<path d="M5010 9317 c-107 -106 -294 -289 -415 -407 -399 -389 -637 -621 -870
-850 -491 -480 -907 -886 -1420 -1385 -380 -369 -435 -424 -435 -435 0 -10
437 -444 451 -449 6 -2 63 48 127 110 65 63 304 296 532 518 228 223 539 526
690 675 263 259 536 526 940 920 102 99 278 273 393 385 l207 205 2 -1200 c2
-659 3 -1222 3 -1250 l0 -52 30 25 c35 30 385 357 640 599 99 94 219 205 267
245 48 41 155 139 238 218 l150 144 112 -109 c255 -247 399 -386 503 -485 130
-123 305 -291 505 -484 80 -77 246 -237 370 -355 331 -316 420 -403 420 -411
0 -12 -42 -22 -90 -22 -37 1 -40 0 -15 -5 33 -8 43 -39 11 -34 -10 2 -15 -1
-12 -6 5 -9 -196 -212 -210 -212 -5 1 1 9 14 20 27 23 21 40 -14 40 -14 0 -35
5 -47 12 -19 10 -20 9 -9 -4 7 -9 10 -27 6 -47 -6 -27 -9 -30 -22 -19 -13 11
-15 10 -9 -5 4 -12 3 -16 -4 -11 -14 8 -49 -30 -48 -53 0 -14 2 -15 6 -3 8 18
34 39 50 40 7 0 1 -11 -12 -25 -26 -25 -32 -45 -15 -45 6 0 10 6 10 14 0 16
18 31 27 22 8 -8 -117 -127 -127 -121 -5 3 -12 0 -16 -6 -4 -8 -3 -9 4 -5 7 4
12 3 12 -2 0 -6 -7 -12 -15 -16 -8 -3 -14 -1 -12 4 1 5 -7 15 -17 23 -17 12
-21 12 -38 -5 -10 -10 -18 -28 -17 -40 1 -21 2 -20 11 5 5 15 14 27 19 27 13
0 11 -14 -3 -29 -11 -11 -10 -14 0 -18 10 -4 8 -11 -8 -28 l-22 -24 -27 25
c-28 26 -42 27 -49 3 -3 -12 -2 -12 7 1 5 8 13 11 17 7 4 -4 0 -15 -10 -25 -9
-11 -14 -26 -10 -36 3 -9 2 -16 -3 -16 -14 0 -93 -77 -86 -84 4 -3 16 2 27 11
15 14 14 10 -4 -13 -14 -17 -27 -28 -30 -25 -3 4 -18 7 -35 7 -16 1 -24 -1
-17 -3 6 -3 12 -9 12 -15 0 -6 -7 -7 -16 -4 -12 5 -15 2 -9 -11 11 -30 11 -38
-2 -36 -7 2 -13 -3 -13 -10 0 -7 -19 -31 -42 -52 -23 -22 -36 -31 -28 -20 8
11 25 28 38 39 13 10 21 24 18 31 -2 7 -1 16 4 21 5 5 -1 9 -15 9 -21 0 -22
-2 -9 -16 12 -14 11 -19 -13 -40 -19 -17 -38 -24 -61 -23 -40 2 -49 -11 -25
-38 17 -21 17 -21 0 -15 -13 5 -17 3 -14 -5 2 -7 11 -12 20 -12 23 2 14 -9
-36 -47 l-42 -32 33 32 c17 18 32 34 32 37 0 4 -15 -3 -32 -15 -40 -24 -59
-52 -41 -58 10 -4 10 -7 0 -18 -8 -8 -14 -9 -18 -3 -4 6 -12 7 -19 3 -8 -5 -9
-10 -2 -14 7 -4 -4 -23 -27 -47 -29 -31 -40 -38 -48 -28 -7 6 -9 15 -5 18 3 4
-2 4 -13 0 -14 -5 -17 -4 -10 4 6 5 19 12 30 14 11 2 21 11 23 20 2 12 -2 15
-18 11 -12 -3 -24 -12 -27 -19 -3 -8 -15 -14 -26 -14 -21 0 -21 0 -1 -16 15
-13 16 -15 2 -10 -12 3 -15 1 -11 -10 6 -17 20 -18 26 -1 4 9 8 8 16 -3 8 -12
-5 -30 -61 -86 -44 -44 -77 -70 -86 -67 -11 5 -11 7 -1 14 7 4 17 5 21 3 4 -3
8 -1 8 5 0 18 -17 21 -30 6 -7 -8 -21 -15 -31 -15 -12 0 -21 -10 -25 -25 -3
-14 -15 -32 -26 -39 -15 -11 -16 -16 -7 -22 7 -4 15 -2 17 4 2 7 9 9 15 5 7
-4 8 0 4 11 -4 9 -3 14 2 11 5 -3 12 -1 16 5 3 5 1 10 -4 10 -16 0 -13 17 4
24 12 4 14 0 11 -19 -5 -29 -192 -211 -212 -207 -8 2 -11 -3 -8 -11 5 -15 -23
-44 -33 -33 -12 12 -14 48 -2 41 6 -4 8 -13 5 -21 -6 -16 10 -19 19 -4 4 6 2
17 -5 25 -9 11 -6 13 14 11 35 -4 53 18 35 41 -8 9 -9 14 -2 10 6 -4 14 -1 16
5 4 10 8 10 15 -1 7 -9 12 -10 16 -2 4 6 2 11 -4 11 -6 0 -8 5 -5 11 4 6 13 8
21 5 23 -9 27 15 5 35 -11 10 -25 19 -31 19 -14 0 -13 -27 3 -33 9 -3 9 -8 -2
-18 -10 -11 -15 -11 -18 -1 -3 6 -9 12 -14 12 -6 0 -7 -4 -4 -10 3 -5 -15 -30
-41 -55 -26 -25 -44 -49 -40 -52 3 -4 -1 -17 -9 -29 -9 -14 -11 -25 -5 -29 10
-6 14 1 11 18 -1 5 3 6 9 2 17 -10 -8 -35 -27 -28 -11 4 -14 3 -9 -6 9 -13
-10 -41 -28 -41 -6 0 -4 6 5 13 25 19 20 45 -9 45 -22 0 -23 -2 -7 -10 15 -9
9 -14 -36 -32 -29 -11 -55 -27 -57 -35 -3 -8 0 -11 6 -7 5 3 12 -1 16 -9 3 -8
2 -14 -2 -14 -19 3 -34 -3 -52 -21 -27 -27 -25 -39 6 -35 23 2 18 -6 -42 -66
-38 -38 -70 -69 -73 -69 -2 0 3 8 12 18 23 25 22 39 -1 19 -10 -10 -22 -14
-27 -10 -4 5 -4 -2 0 -15 5 -19 -6 -35 -72 -103 -76 -78 -174 -165 -160 -142
4 6 0 16 -8 23 -9 7 -15 8 -15 2 0 -5 -12 -13 -26 -16 -36 -9 -29 -41 10 -40
l28 1 -28 -23 c-26 -20 -31 -21 -44 -8 -13 13 -13 16 0 24 12 8 11 10 -7 10
-19 0 -23 -5 -23 -31 0 -24 4 -30 15 -25 25 9 17 -11 -12 -29 -16 -10 -22 -12
-15 -4 6 7 12 17 12 21 0 14 -51 9 -66 -6 -18 -18 -19 -69 -1 -63 6 2 11 11 9
19 -1 9 6 21 15 29 15 11 16 11 6 -1 -15 -17 -17 -34 -3 -25 24 15 6 -10 -47
-63 -31 -31 -53 -49 -50 -40 4 12 -1 21 -14 29 -17 9 -25 7 -44 -11 -23 -21
-32 -67 -10 -51 5 4 20 8 33 9 24 1 23 -1 -28 -43 -13 -11 -20 -15 -17 -8 13
22 -12 24 -33 3 -21 -21 -19 -46 3 -34 7 4 -1 -7 -17 -24 -17 -18 -32 -32 -35
-32 -2 0 6 11 19 25 13 14 18 25 12 25 -7 0 -15 0 -19 0 -5 0 -8 -4 -8 -10 0
-5 -24 -21 -53 -36 -29 -14 -66 -39 -82 -55 l-29 -29 27 -15 c15 -8 21 -14 14
-15 -7 0 -11 -4 -8 -9 3 -5 -1 -14 -9 -21 -8 -7 -15 -9 -15 -6 0 4 -7 1 -15
-8 -8 -8 -15 -18 -15 -22 0 -11 -52 -64 -62 -64 -4 0 -8 5 -8 10 0 6 5 9 11 8
6 -2 14 3 17 11 3 8 0 11 -7 7 -6 -4 -11 -2 -11 3 0 6 4 11 8 11 5 0 6 14 4
31 -3 23 -1 30 7 25 7 -5 10 -20 7 -37 -5 -31 11 -40 21 -11 3 9 15 27 26 39
21 23 16 43 -11 43 -14 0 -15 -2 -2 -10 8 -5 11 -12 7 -17 -4 -4 -16 -2 -26 4
-23 14 -41 -1 -41 -34 0 -17 -6 -23 -22 -24 -17 -1 -19 -2 -5 -6 9 -2 17 -9
17 -15 0 -6 -8 -8 -19 -5 -11 3 -24 -3 -32 -15 -8 -11 -20 -27 -27 -34 -7 -8
-11 -18 -7 -23 7 -12 -25 -30 -42 -24 -7 3 -13 0 -13 -5 0 -22 -33 -43 -57
-37 -16 4 -25 1 -29 -10 -4 -10 -20 -15 -46 -15 -33 0 -41 -4 -46 -22 -5 -16
-10 2 -18 57 l-12 80 5 -100 c3 -55 2 -97 -2 -93 -4 4 -9 150 -11 325 -3 301
5 446 26 467 5 5 7 1 4 -11 -3 -12 -1 -24 5 -27 7 -4 8 -1 5 8 -4 10 -1 16 7
16 23 0 42 17 44 38 1 25 23 52 40 52 7 0 18 7 26 16 10 13 10 17 0 24 -9 5
-10 10 -2 14 6 4 11 3 11 -1 0 -5 9 -9 19 -9 11 0 18 4 15 7 -2 4 0 10 6 14 5
3 10 20 10 36 0 18 -4 28 -10 24 -6 -4 -8 -14 -6 -23 7 -20 -10 -50 -21 -39
-4 5 -1 12 7 17 8 5 11 13 6 17 -4 4 -13 0 -20 -10 -7 -9 -17 -17 -22 -17 -5
0 25 33 65 74 49 49 79 72 89 68 10 -3 13 -1 8 6 -3 6 8 27 25 46 25 29 34 34
49 26 23 -12 38 6 20 23 -10 10 -11 8 -6 -8 6 -15 4 -17 -5 -8 -6 6 -8 16 -5
22 10 15 48 -10 41 -27 -3 -7 -1 -11 4 -8 11 7 11 55 -1 62 -15 9 12 33 29 27
12 -5 14 -3 8 7 -6 9 -4 11 5 5 10 -6 10 -11 -3 -20 -11 -8 -17 -26 -17 -51 0
-29 3 -35 10 -24 5 8 10 27 10 41 0 14 9 35 20 47 26 28 25 35 -2 27 -21 -5
-21 -5 -5 6 26 16 43 -2 28 -30 -8 -14 -8 -21 -1 -21 5 0 10 4 10 9 0 5 14 25
31 44 22 24 37 33 52 31 20 -4 20 -3 -2 6 -14 6 -28 7 -35 2 -6 -5 -19 -9 -29
-9 -15 0 -13 5 10 29 27 28 39 36 28 18 -3 -5 6 -12 21 -16 19 -5 31 -2 39 10
7 9 20 16 29 16 9 0 16 6 16 13 0 21 -66 7 -82 -17 -5 -8 -8 -8 -8 0 0 12 15
30 52 63 25 22 33 13 14 -17 -6 -10 -1 -11 21 -6 38 9 41 13 21 28 -23 17 -13
26 29 26 22 0 33 5 33 14 0 18 -17 30 -24 17 -4 -5 0 -12 6 -15 10 -4 -15 -2
-41 3 -2 1 2 8 9 16 7 9 15 13 18 10 3 -3 12 1 20 8 9 6 13 8 11 2 -3 -5 3
-18 14 -28 19 -19 19 -18 12 3 -4 13 -1 30 9 45 18 27 21 49 6 40 -6 -4 -8
-11 -5 -16 3 -5 -1 -6 -9 -3 -11 4 -16 0 -17 -12 0 -11 -3 -14 -6 -6 -6 15 75
98 92 94 7 -1 19 6 26 15 13 17 13 17 -6 3 -15 -11 -14 -8 4 12 30 34 48 26
25 -10 -9 -15 -11 -22 -4 -15 7 6 19 9 26 6 8 -3 14 1 14 11 0 9 6 16 13 16
21 0 73 71 61 83 -13 13 8 27 25 17 12 -6 22 -5 29 2 19 19 14 26 -14 23 l-25
-2 22 23 c12 13 25 24 28 24 3 0 0 -5 -7 -12 -17 -17 -15 -27 6 -24 11 2 17
12 17 27 0 18 7 25 29 29 21 4 30 12 33 28 2 15 -1 21 -8 17 -6 -4 -8 -12 -6
-19 3 -6 -4 -12 -14 -12 -17 0 -17 2 3 23 12 13 17 23 12 23 -5 0 -41 -32 -79
-70 -37 -39 -72 -69 -77 -68 -18 7 -397 392 -392 400 3 5 2 8 -3 7 -21 -4 -24
2 -12 19 13 15 12 16 -4 3 -16 -12 -20 -12 -34 2 -14 14 -14 18 -2 34 12 16
12 17 -1 6 -12 -9 -21 -6 -43 13 -16 14 -25 29 -21 36 5 7 3 8 -5 3 -15 -9
-103 73 -94 88 3 6 2 7 -4 4 -12 -8 -105 87 -95 98 4 5 2 5 -4 2 -14 -8 -58
38 -50 52 4 6 1 9 -6 6 -8 -3 -29 10 -48 30 -30 31 -32 50 -2 25 7 -5 6 -3 -1
6 -8 8 -21 16 -30 18 -23 3 -58 37 -50 49 3 5 -2 16 -12 23 -10 8 -17 16 -14
18 2 2 15 -5 28 -16 16 -12 21 -22 14 -26 -16 -10 6 -27 37 -29 25 -2 25 -2
-3 11 -15 7 -24 15 -21 19 4 4 -3 18 -15 31 -17 18 -19 25 -9 30 7 3 2 3 -11
0 -13 -4 -21 -2 -18 3 3 5 -3 17 -14 27 -13 10 -18 24 -14 35 4 14 1 19 -12
17 -12 -1 -19 7 -20 24 l-2 25 9 -25 c8 -20 9 -17 5 16 -3 29 -1 43 8 47 10 4
12 -4 10 -27 -3 -31 -3 -31 9 -6 7 14 15 27 18 30 3 3 6 11 7 18 3 14 -33 16
-42 2 -4 -7 -13 -7 -24 0 -17 8 -18 0 -24 -128 -4 -75 -7 -547 -7 -1049 0
-854 -1 -911 -18 -918 -16 -6 -16 -7 2 -21 18 -13 15 -18 -9 -15 -5 1 -1 -6
10 -14 20 -15 20 -29 22 -531 1 -283 -3 -514 -7 -512 -15 5 -442 416 -1030
988 -201 196 -516 502 -700 680 -184 178 -479 464 -655 635 -176 170 -359 348
-407 394 l-88 84 -227 -224 c-126 -123 -229 -226 -231 -230 -3 -6 333 -337
858 -844 85 -82 250 -242 365 -355 204 -199 660 -640 895 -866 171 -164 389
-374 525 -504 207 -199 375 -361 532 -514 83 -81 154 -148 158 -148 4 0 50 42
104 94 53 51 209 201 346 333 138 132 309 296 380 365 72 69 189 182 260 250
163 157 362 349 575 555 383 371 504 488 660 640 91 88 323 313 515 500 478
463 739 719 1079 1057 l290 287 -25 23 c-13 13 -182 177 -374 363 -193 187
-460 446 -595 575 -135 129 -398 383 -585 565 -188 181 -473 458 -635 615
-162 157 -374 362 -470 455 -96 94 -242 235 -325 315 -82 79 -217 210 -300
290 -252 245 -893 860 -897 860 -1 0 -91 -87 -198 -193z m280 -4053 c0 -8 -19
-13 -24 -6 -3 5 1 9 9 9 8 0 15 -2 15 -3z m2835 -24 c-10 -11 -22 -17 -27 -14
-5 3 -1 12 9 20 27 20 39 17 18 -6z m-5 -45 c8 5 11 4 6 -3 -10 -16 -45 -11
-39 6 5 10 8 11 13 2 5 -7 13 -9 20 -5z m-330 -290 c-7 -9 -15 -13 -17 -11 -6
6 20 36 26 30 2 -2 -2 -10 -9 -19z m-5 -45 c-16 -16 -31 -27 -34 -24 -5 4 48
53 58 54 3 0 -8 -13 -24 -30z m-125 -114 c0 -2 -8 -10 -17 -17 -16 -13 -17
-12 -4 4 13 16 21 21 21 13z m-190 -126 c0 -5 -4 -10 -10 -10 -5 0 -10 5 -10
10 0 6 5 10 10 10 6 0 10 -4 10 -10z m30 -10 c0 -5 -4 -10 -10 -10 -5 0 -10 5
-10 10 0 6 5 10 10 10 6 0 10 -4 10 -10z m-1265 -329 c10 -17 -12 -21 -25 -6
-10 12 -10 15 3 15 9 0 18 -4 22 -9z m-11 -43 c-3 -5 -12 -8 -21 -8 -9 0 -13
3 -10 7 4 3 2 12 -4 19 -8 10 -6 11 14 1 14 -6 23 -15 21 -19z m486 -423 c-19
-20 -40 -33 -48 -30 -10 4 -12 0 -8 -12 6 -14 4 -15 -5 -6 -14 14 -3 34 16 26
8 -3 16 0 16 6 3 26 4 30 13 38 5 5 6 3 2 -4 -10 -18 9 -16 24 2 7 8 15 15 18
15 3 0 -9 -16 -28 -35z m-1350 -388 c0 -2 -12 -14 -27 -28 l-28 -24 24 28 c23
25 31 32 31 24z m-110 -91 c0 -3 -4 -8 -10 -11 -5 -3 -10 -1 -10 4 0 6 5 11
10 11 6 0 10 -2 10 -4z m570 -381 c0 -1 -15 -14 -32 -31 -32 -28 -32 -28 -9
-1 14 15 19 27 13 27 -6 0 -14 -4 -17 -10 -8 -14 -35 -13 -35 1 0 6 7 9 15 6
8 -4 17 -2 20 3 4 6 45 11 45 5z m-240 -230 c0 -7 -7 -18 -16 -25 -12 -11 -18
-11 -29 1 -9 9 -11 19 -6 28 6 9 11 10 15 2 4 -6 2 -11 -4 -11 -6 0 -9 -4 -5
-10 8 -13 35 -1 35 16 0 8 -4 14 -10 14 -5 0 -10 5 -10 11 0 8 5 8 15 -1 8 -7
15 -18 15 -25z m-62 -65 c-13 -10 -24 -17 -26 -15 -6 6 33 42 41 38 4 -3 -3
-13 -15 -23z m-45 -24 c3 -8 -6 -24 -21 -37 l-27 -24 25 29 c18 21 20 28 8 23
-12 -4 -15 -2 -11 9 7 18 19 18 26 0z m-83 -16 c0 -5 -4 -10 -10 -10 -5 0 -10
5 -10 10 0 6 5 10 10 10 6 0 10 -4 10 -10z m30 -15 c-7 -8 -18 -15 -24 -15 -6
0 -2 7 8 15 25 19 32 19 16 0z m-22 -60 c-26 -24 -41 -17 -30 14 4 11 6 11 14
0 7 -12 11 -11 21 3 6 9 13 15 16 12 3 -3 -7 -16 -21 -29z m-68 -15 c0 -5 -4
-10 -10 -10 -5 0 -10 5 -10 10 0 6 5 10 10 10 6 0 10 -4 10 -10z m20 -24 c0
-3 -4 -8 -10 -11 -5 -3 -10 -1 -10 4 0 6 5 11 10 11 6 0 10 -2 10 -4z"/>
<path d="M7353 5397 c-39 -38 -69 -75 -67 -81 3 -7 -3 -19 -13 -27 -16 -13
-17 -12 -4 4 8 9 12 20 9 23 -8 7 -123 -108 -120 -120 2 -6 0 -8 -4 -3 -8 7
-306 -279 -351 -337 -13 -17 -23 -26 -23 -22 0 5 -37 -28 -81 -73 -65 -65 -79
-85 -69 -94 10 -10 12 -8 6 8 -6 19 -5 19 8 3 18 -24 29 -23 21 1 -7 22 13 40
25 21 5 -8 9 -7 13 4 4 10 1 16 -9 16 -12 0 -12 2 -2 14 7 8 16 12 20 10 3 -2
9 2 11 8 4 10 8 9 17 -2 10 -13 11 -13 7 1 -7 21 10 39 38 40 17 1 17 2 2 6
-9 2 -15 9 -11 14 3 5 10 6 16 3 7 -5 8 -2 3 6 -6 10 -3 12 12 8 15 -4 20 -1
19 11 -1 9 7 16 17 16 10 0 23 8 29 18 9 17 8 18 -14 7 -22 -11 -22 -10 -4 4
11 9 23 16 28 16 4 0 8 7 8 15 0 8 4 15 10 15 5 0 7 -7 4 -15 -4 -8 -1 -15 6
-15 7 0 10 8 7 20 -3 12 1 24 11 29 10 5 16 12 15 15 -8 17 0 18 8 1 7 -16 8
-14 4 9 -6 26 -4 28 10 16 12 -10 19 -10 27 -2 9 9 16 8 27 -1 14 -10 14 -10
3 4 -14 19 -10 63 6 65 7 1 21 2 32 3 11 0 20 8 20 16 0 8 5 15 11 15 6 0 9 9
6 20 -3 10 1 24 8 30 11 9 12 6 9 -12 -4 -16 -1 -13 9 8 16 35 35 50 45 39 4
-4 1 -10 -5 -12 -20 -7 -15 -19 6 -19 11 0 18 4 15 7 -2 4 0 10 6 14 5 3 10
14 9 23 0 14 -2 13 -9 -3 -7 -17 -9 -17 -9 -2 -2 31 -1 32 8 32 14 0 51 42 51
57 1 8 6 5 15 -6 13 -17 15 -17 15 -3 0 9 9 23 21 31 12 8 18 19 15 25 -5 7
-1 8 11 4 15 -6 16 -4 5 9 -10 13 -10 17 4 22 24 9 31 7 14 -4 -13 -9 -13 -11
0 -20 10 -6 11 -10 3 -10 -17 0 -17 -16 0 -23 9 -3 12 7 12 39 -1 30 2 41 9
34 5 -5 15 -10 21 -10 5 0 3 4 -5 10 -12 7 -12 12 0 34 7 14 18 26 23 26 6 0
3 -8 -6 -18 -13 -14 -14 -21 -5 -30 17 -17 26 -15 38 11 11 21 10 21 -4 3 -9
-11 -19 -16 -23 -13 -3 4 4 19 18 33 17 18 19 23 6 18 -31 -12 -18 6 16 20 29
13 30 14 7 13 -17 -1 -49 -24 -97 -70z m-276 -301 c-3 -8 -16 -20 -28 -27 -22
-12 -22 -11 2 18 25 31 36 35 26 9z m-91 -94 c-10 -11 -16 -12 -16 -4 0 7 5
12 10 12 6 0 10 8 11 18 0 11 2 13 6 4 3 -8 -2 -21 -11 -30z"/>
<path d="M8324 5439 c-4 -7 -20 -8 -42 -4 -33 6 -34 5 -18 -10 9 -9 23 -14 31
-11 23 8 18 -2 -12 -29 -16 -13 -23 -24 -18 -24 17 0 81 59 65 59 -9 1 -4 7
10 15 18 10 20 14 8 15 -9 0 -20 -5 -24 -11z"/>
<path d="M8244 5402 c9 -29 -18 -54 -50 -47 l-29 7 25 -15 c17 -9 29 -11 38
-4 7 5 15 7 19 4 3 -4 -7 -12 -21 -19 -23 -10 -29 -9 -36 2 -11 17 -15 13 -24
-20 -6 -18 -5 -21 3 -10 5 8 13 11 17 7 4 -3 1 -13 -6 -22 -28 -34 -1 -22 44
19 32 29 43 45 35 49 -11 3 -12 8 -1 26 15 26 15 28 -4 35 -11 4 -14 1 -10
-12z"/>
<path d="M5427 5109 c7 -7 15 -10 18 -7 3 3 -2 9 -12 12 -14 6 -15 5 -6 -5z"/>
<path d="M7943 5112 c-6 -4 -15 -21 -19 -37 -4 -17 -12 -33 -18 -37 -8 -5 -7
-8 2 -8 7 0 16 10 21 23 5 13 16 29 25 36 27 22 18 41 -11 23z"/>
<path d="M7985 5111 c3 -5 -3 -16 -13 -23 -11 -7 -22 -24 -27 -38 l-7 -25 26
25 c14 14 32 31 41 38 17 15 12 32 -11 32 -8 0 -13 -4 -9 -9z"/>
<path d="M5480 5069 c0 -5 5 -7 10 -4 6 3 10 8 10 11 0 2 -4 4 -10 4 -5 0 -10
-5 -10 -11z"/>
<path d="M7090 5059 c0 -5 5 -7 10 -4 6 3 10 8 10 11 0 2 -4 4 -10 4 -5 0 -10
-5 -10 -11z"/>
<path d="M5500 5050 c-9 -6 -10 -10 -3 -10 6 0 15 5 18 10 8 12 4 12 -15 0z"/>
<path d="M7031 5024 c0 -11 3 -14 6 -6 3 7 2 16 -1 19 -3 4 -6 -2 -5 -13z"/>
<path d="M7823 4946 c14 -14 21 -16 30 -7 8 8 8 11 0 11 -6 0 -20 3 -30 7 -17
7 -17 6 0 -11z"/>
<path d="M7691 4869 c10 -6 10 -11 -1 -23 -22 -27 -7 -24 21 4 l26 27 -29 0
c-17 0 -24 -3 -17 -8z"/>
<path d="M3660 4796 c0 -2 8 -10 18 -17 15 -13 16 -12 3 4 -13 16 -21 21 -21
13z"/>
<path d="M7625 4790 c3 -5 11 -10 16 -10 6 0 7 5 4 10 -3 6 -11 10 -16 10 -6
0 -7 -4 -4 -10z"/>
<path d="M3745 4710 c10 -11 20 -20 23 -20 3 0 -3 9 -13 20 -10 11 -20 20 -23
20 -3 0 3 -9 13 -20z"/>
<path d="M7524 4686 c1 -18 4 -22 14 -14 9 8 9 14 1 24 -16 19 -17 18 -15 -10z"/>
<path d="M6592 4657 c-13 -15 -6 -27 14 -27 7 0 11 7 10 15 -3 22 -12 27 -24
12z"/>
<path d="M6493 4561 c-48 -45 -59 -61 -50 -70 9 -10 9 -11 -3 -6 -9 3 -24 -1
-35 -9 -16 -12 -17 -17 -8 -27 10 -10 16 -9 31 4 10 9 26 17 35 17 9 0 17 7
17 16 0 8 -4 13 -9 9 -5 -3 -13 -1 -16 5 -4 6 -3 10 2 9 23 -4 43 2 38 11 -4
6 -12 7 -18 3 -7 -4 -7 -1 1 9 8 9 23 18 35 20 15 2 21 9 19 22 -3 13 1 17 11
13 14 -5 37 10 37 25 0 21 -30 3 -87 -51z"/>
<path d="M7380 4550 c-8 -5 -11 -12 -8 -16 4 -3 14 1 23 10 18 17 9 21 -15 6z"/>
<path d="M7322 4481 c-24 -12 -29 -20 -21 -28 9 -9 6 -20 -11 -45 l-23 -33 33
33 c26 27 30 36 20 47 -12 15 -4 19 37 18 6 0 9 6 6 13 -3 8 -6 14 -7 13 0 -1
-16 -9 -34 -18z"/>
<path d="M4060 4406 c0 -2 8 -10 18 -17 15 -13 16 -12 3 4 -13 16 -21 21 -21
13z"/>
<path d="M7180 4356 c0 -21 40 -27 58 -9 15 14 14 15 -5 9 -12 -4 -24 -2 -28
4 -9 15 -25 12 -25 -4z"/>
<path d="M7197 4323 c-4 -3 -7 -11 -7 -17 0 -6 5 -5 12 2 6 6 9 14 7 17 -3 3
-9 2 -12 -2z"/>
<path d="M7129 4318 c-10 -32 3 -80 18 -65 4 5 1 13 -7 18 -11 8 -9 9 10 4
l25 -6 -22 19 c-12 11 -19 22 -16 26 4 3 3 6 0 6 -4 0 -7 -1 -8 -2z"/>
<path d="M7155 4300 c3 -5 10 -10 16 -10 5 0 9 5 9 10 0 6 -7 10 -16 10 -8 0
-12 -4 -9 -10z"/>
<path d="M6285 4270 c3 -5 8 -10 11 -10 2 0 4 5 4 10 0 6 -5 10 -11 10 -5 0
-7 -4 -4 -10z"/>
<path d="M6950 4161 c0 -15 22 -61 30 -61 9 0 30 23 30 33 0 5 -7 4 -15 -3 -9
-7 -19 -10 -22 -6 -4 4 -1 11 6 15 11 7 9 11 -8 20 -13 7 -21 8 -21 2z"/>
<path d="M6062 4130 c-8 -13 -8 -20 -1 -20 5 0 8 -4 4 -9 -3 -5 -1 -12 5 -16
5 -3 9 9 8 30 -1 19 -2 35 -2 35 -1 0 -7 -9 -14 -20z"/>
<path d="M6051 4044 c0 -11 3 -14 6 -6 3 7 2 16 -1 19 -3 4 -6 -2 -5 -13z"/>
<path d="M5871 3940 c-13 -11 -19 -20 -14 -20 6 0 18 9 28 20 23 25 17 25 -14
0z"/>
<path d="M5795 3869 c-4 -6 -5 -12 -2 -15 2 -3 7 2 10 11 7 17 1 20 -8 4z"/>
<path d="M6560 3748 c8 -9 19 -13 24 -10 5 3 6 0 2 -7 -5 -7 -11 -10 -14 -6
-3 3 -21 -9 -40 -27 -23 -22 -36 -29 -39 -20 -5 13 -23 7 -23 -9 0 -6 5 -7 10
-4 6 3 10 1 10 -6 0 -8 5 -7 18 3 9 9 22 13 29 11 6 -2 14 4 17 14 3 10 16 23
28 28 25 11 35 31 16 32 -7 0 -22 4 -33 9 -17 7 -18 6 -5 -8z"/>
<path d="M6513 3725 c-16 -17 -17 -35 -3 -35 6 0 10 7 10 15 0 8 7 15 15 15 8
0 15 5 15 10 0 15 -23 12 -37 -5z"/>
<path d="M5582 3667 c-12 -13 -19 -27 -15 -30 3 -4 1 -7 -5 -7 -7 0 -11 -6 -9
-12 1 -7 -6 -13 -15 -13 -24 0 -70 -46 -63 -63 4 -10 0 -12 -10 -8 -10 3 -13
2 -10 -5 4 -5 16 -7 27 -3 14 4 18 2 14 -5 -5 -7 -1 -9 9 -5 12 5 14 15 10 41
-3 22 -1 32 5 28 5 -3 10 -18 10 -33 0 -35 17 -17 22 23 2 21 8 30 20 30 10 0
17 5 15 10 -1 6 -5 9 -8 8 -3 -1 -6 5 -6 13 0 10 4 11 11 4 15 -15 36 -12 36
5 0 8 -7 15 -16 15 -14 0 -14 3 -4 15 20 24 6 17 -18 -8z m-75 -118 c2 -17 -1
-18 -13 -8 -13 11 -10 20 11 29 1 0 1 -9 2 -21z"/>
<path d="M6430 3636 c0 -8 6 -17 13 -20 8 -3 7 -8 -6 -16 -9 -6 -15 -15 -12
-21 4 -5 1 -9 -6 -9 -7 0 -9 8 -6 21 3 13 1 19 -6 16 -7 -3 -11 -10 -9 -17 5
-24 -10 -50 -38 -65 -35 -18 -44 -19 -34 -3 4 7 3 8 -4 4 -7 -4 -12 -13 -12
-20 0 -8 -11 -21 -25 -30 -20 -13 -24 -22 -19 -39 6 -20 5 -21 -11 -7 -17 14
-17 14 -5 -7 11 -16 17 -19 27 -11 7 5 10 14 7 19 -3 5 2 6 10 3 11 -4 16 0
16 14 0 12 4 24 10 27 6 4 7 -1 3 -12 -3 -10 5 -5 18 12 13 16 23 33 21 38 -1
5 3 5 9 1 11 -7 69 49 69 67 0 4 9 11 20 14 24 7 25 21 6 41 -19 18 -36 18
-36 0z m-80 -136 c0 -5 -5 -10 -11 -10 -5 0 -7 5 -4 10 3 6 8 10 11 10 2 0 4
-4 4 -10z"/>
<path d="M5570 3580 c0 -5 5 -10 10 -10 6 0 10 5 10 10 0 6 -4 10 -10 10 -5 0
-10 -4 -10 -10z"/>
<path d="M6351 3564 c-7 -8 -10 -18 -7 -21 7 -7 36 16 36 28 0 13 -13 10 -29
-7z"/>
<path d="M5020 3485 c13 -14 26 -25 28 -25 3 0 -5 11 -18 25 -13 14 -26 25
-28 25 -3 0 5 -11 18 -25z"/>
<path d="M5110 3397 c30 -31 57 -57 59 -57 5 0 -19 31 -42 53 -15 16 -16 21
-5 35 12 15 11 16 -5 3 -15 -12 -20 -11 -40 5 -12 10 3 -7 33 -39z"/>
<path d="M5148 3403 c6 -2 12 -11 12 -19 0 -8 5 -14 10 -14 6 0 10 4 10 8 0
12 -22 32 -34 31 -6 0 -5 -3 2 -6z"/>
<path d="M5346 3373 c-6 -14 -5 -15 5 -6 7 7 10 15 7 18 -3 3 -9 -2 -12 -12z"/>
<path d="M6174 3339 c-8 -14 14 -19 25 -6 8 10 7 14 -5 14 -8 0 -17 -4 -20 -8z"/>
<path d="M5990 3210 c-13 -8 -12 -10 3 -10 10 0 16 -4 13 -8 -2 -4 -1 -13 3
-20 5 -9 13 -6 29 8 12 12 22 25 22 30 0 13 -51 13 -70 0z m50 -14 c0 -3 -4
-8 -10 -11 -5 -3 -10 -1 -10 4 0 6 5 11 10 11 6 0 10 -2 10 -4z"/>
<path d="M5936 3094 c-5 -14 -4 -15 9 -4 17 14 19 20 6 20 -5 0 -12 -7 -15
-16z"/>
<path d="M5460 2700 c0 -5 7 -10 15 -10 8 0 15 5 15 10 0 6 -7 10 -15 10 -8 0
-15 -4 -15 -10z"/>
</g>
</svg>
